<svg width="41" height="40" viewBox="0 0 41 40" fill="none" xmlns="http://www.w3.org/2000/svg">
<mask id="mask0_1520_3484" style="mask-type:alpha" maskUnits="userSpaceOnUse" x="0" y="0" width="41" height="40">
<rect x="0.5" width="40" height="40" fill="#D9D9D9"/>
</mask>
<g mask="url(#mask0_1520_3484)">
<path d="M20.5 35C18.425 35 16.475 34.6064 14.65 33.8192C12.825 33.0319 11.2375 31.9636 9.8875 30.6142C8.5375 29.2647 7.46875 27.6778 6.68125 25.8533C5.89375 24.0292 5.5 22.0799 5.5 20.0054C5.5 17.9312 5.89361 15.9811 6.68083 14.155C7.46806 12.3292 8.53639 10.7408 9.88583 9.39C11.2353 8.03917 12.8222 6.96986 14.6467 6.18208C16.4708 5.39403 18.4201 5 20.4946 5C22.5688 5 24.5189 5.39375 26.345 6.18125C28.1708 6.96875 29.7592 8.0375 31.11 9.3875C32.4608 10.7375 33.5301 12.325 34.3179 14.15C35.106 15.975 35.5 17.925 35.5 20V32.3075C35.5 33.0481 35.2364 33.6819 34.7092 34.2092C34.1819 34.7364 33.5481 35 32.8075 35H20.5ZM20.5 33.3333C24.2222 33.3333 27.375 32.0417 29.9583 29.4583C32.5417 26.875 33.8333 23.7222 33.8333 20C33.8333 16.2778 32.5417 13.125 29.9583 10.5417C27.375 7.95833 24.2222 6.66667 20.5 6.66667C16.7778 6.66667 13.625 7.95833 11.0417 10.5417C8.45833 13.125 7.16667 16.2778 7.16667 20C7.16667 20.7883 7.22972 21.5629 7.35583 22.3237C7.48194 23.0843 7.68167 23.8204 7.955 24.5321L13.0062 19.4808C13.2504 19.2339 13.5444 19.1049 13.8883 19.0938C14.2319 19.0826 14.5383 19.1946 14.8075 19.4296L19.3975 23.2467L26.8108 15.8333H23.8333C23.5972 15.8333 23.3993 15.7533 23.2396 15.5933C23.0799 15.4333 23 15.2351 23 14.9987C23 14.7624 23.0799 14.5646 23.2396 14.4054C23.3993 14.2462 23.5972 14.1667 23.8333 14.1667H28.3204C28.7018 14.1667 29.0215 14.2957 29.2796 14.5537C29.5376 14.8118 29.6667 15.1315 29.6667 15.5129V20C29.6667 20.2361 29.5867 20.434 29.4267 20.5937C29.2667 20.7535 29.0685 20.8333 28.8321 20.8333C28.5957 20.8333 28.3979 20.7535 28.2387 20.5937C28.0796 20.434 28 20.2361 28 20V17.0546L20.3592 24.6538C20.1175 24.8951 19.82 25.0297 19.4667 25.0575C19.1131 25.0853 18.7994 24.9785 18.5258 24.7371L14.0096 20.8783L8.70833 26.1796C9.81083 28.3099 11.4081 30.0347 13.5 31.3542C15.5919 32.6736 17.9253 33.3333 20.5 33.3333ZM32.6154 33.3975C32.9593 33.3975 33.259 33.2699 33.5146 33.0146C33.7699 32.759 33.8975 32.4593 33.8975 32.1154C33.8975 31.7713 33.7699 31.4715 33.5146 31.2163C33.259 30.961 32.9593 30.8333 32.6154 30.8333C32.2713 30.8333 31.9715 30.961 31.7163 31.2163C31.461 31.4715 31.3333 31.7713 31.3333 32.1154C31.3333 32.4593 31.461 32.759 31.7163 33.0146C31.9715 33.2699 32.2713 33.3975 32.6154 33.3975Z" fill="#5D5D5D"/>
</g>
</svg>
