<svg width="41" height="40" viewBox="0 0 41 40" fill="none" xmlns="http://www.w3.org/2000/svg">
<mask id="mask0_1520_3464" style="mask-type:alpha" maskUnits="userSpaceOnUse" x="0" y="0" width="41" height="40">
<rect x="0.5" width="40" height="40" fill="#D9D9D9"/>
</mask>
<g mask="url(#mask0_1520_3464)">
<path d="M6.83875 32.5002C6.45681 32.5002 6.13819 32.3711 5.88292 32.1127C5.62764 31.8547 5.5 31.5348 5.5 31.1532V23.0694C5.5 22.6877 5.62917 22.3693 5.8875 22.114C6.14556 21.8587 6.46542 21.7311 6.84708 21.7311H14.9308C15.3125 21.7311 15.631 21.8601 15.8862 22.1182C16.1415 22.3765 16.2692 22.6965 16.2692 23.0782V31.1615C16.2692 31.5434 16.1401 31.8621 15.8821 32.1173C15.6238 32.3726 15.3038 32.5002 14.9221 32.5002H6.83875ZM7.16667 30.8336H14.6025V23.3977H7.16667V30.8336ZM23.6954 15.0002H14.7404C14.2296 15.0002 13.8465 14.769 13.5913 14.3065C13.336 13.8437 13.3429 13.388 13.6121 12.9394L18.0575 5.60275C18.3314 5.17553 18.7193 4.96191 19.2212 4.96191C19.7232 4.96191 20.1089 5.17553 20.3783 5.60275L24.8238 12.9394C25.0929 13.388 25.0999 13.8437 24.8446 14.3065C24.5893 14.769 24.2063 15.0002 23.6954 15.0002ZM15.2629 13.3336H23.1729L19.2179 6.994L15.2629 13.3336ZM35.9325 35.8015L32.17 32.0386C31.6506 32.4489 31.0719 32.7673 30.4342 32.994C29.7964 33.2204 29.1132 33.3336 28.3846 33.3336C26.6432 33.3336 25.1715 32.7326 23.9696 31.5307C22.7676 30.3287 22.1667 28.857 22.1667 27.1157C22.1667 25.3743 22.7676 23.9026 23.9696 22.7007C25.1715 21.4987 26.6432 20.8977 28.3846 20.8977C30.126 20.8977 31.5976 21.4987 32.7996 22.7007C34.0015 23.9026 34.6025 25.3743 34.6025 27.1157C34.6025 27.8379 34.4893 28.5126 34.2629 29.1398C34.0362 29.7668 33.7317 30.34 33.3492 30.8594L37.1121 34.6219C37.2682 34.778 37.3515 34.9693 37.3621 35.1957C37.3729 35.4223 37.2896 35.6243 37.1121 35.8015C36.9349 35.979 36.7383 36.0677 36.5225 36.0677C36.3067 36.0677 36.11 35.979 35.9325 35.8015ZM28.3838 31.6669C29.6579 31.6669 30.7351 31.2271 31.6154 30.3473C32.4957 29.4676 32.9358 28.3907 32.9358 27.1165C32.9358 25.8423 32.496 24.7651 31.6162 23.8848C30.7365 23.0046 29.6596 22.5644 28.3854 22.5644C27.1112 22.5644 26.034 23.0043 25.1538 23.884C24.2735 24.7637 23.8333 25.8407 23.8333 27.1148C23.8333 28.389 24.2732 29.4662 25.1529 30.3465C26.0326 31.2268 27.1096 31.6669 28.3838 31.6669Z" fill="#5D5D5D"/>
</g>
</svg>
