<svg width="41" height="40" viewBox="0 0 41 40" fill="none" xmlns="http://www.w3.org/2000/svg">
<mask id="mask0_1520_3500" style="mask-type:alpha" maskUnits="userSpaceOnUse" x="0" y="0" width="41" height="40">
<rect x="0.5" width="40" height="40" fill="#D9D9D9"/>
</mask>
<g mask="url(#mask0_1520_3500)">
<path d="M29.0097 35.3363L28.6701 33.3492C28.187 33.2103 27.7704 33.0458 27.4201 32.8558C27.0695 32.6656 26.7255 32.4112 26.388 32.0929L24.4842 32.7467L23.2022 30.6504L24.7342 29.3367C24.6145 28.875 24.5547 28.4069 24.5547 27.9325C24.5547 27.4583 24.6145 26.9904 24.7342 26.5287L23.2022 25.2146L24.4842 23.1187L26.388 23.7725C26.7255 23.4433 27.0695 23.1864 27.4201 23.0017C27.7704 22.8167 28.187 22.6547 28.6701 22.5158L29.0097 20.5288H31.5097L31.8492 22.5158C32.3323 22.6547 32.749 22.8167 33.0992 23.0017C33.4498 23.1864 33.7938 23.4433 34.1313 23.7725L36.0351 23.1187L37.3172 25.2146L35.7851 26.5287C35.9048 26.9904 35.9647 27.4583 35.9647 27.9325C35.9647 28.4069 35.9048 28.875 35.7851 29.3367L37.3172 30.6504L36.0351 32.7467L34.1313 32.0929C33.7938 32.4112 33.4498 32.6656 33.0992 32.8558C32.749 33.0458 32.3323 33.2103 31.8492 33.3492L31.5097 35.3363H29.0097ZM30.2597 31.3942C31.2083 31.3942 32.0224 31.0544 32.7022 30.375C33.3816 29.6956 33.7213 28.8814 33.7213 27.9325C33.7213 26.9839 33.3816 26.1699 32.7022 25.4904C32.0224 24.811 31.2083 24.4713 30.2597 24.4713C29.3111 24.4713 28.4969 24.811 27.8172 25.4904C27.1377 26.1699 26.798 26.9839 26.798 27.9325C26.798 28.8814 27.1377 29.6956 27.8172 30.375C28.4969 31.0544 29.3111 31.3942 30.2597 31.3942ZM7.16675 30V10V17.2787V16.6667V30ZM7.67966 32.5C6.83772 32.5 6.12508 32.2083 5.54175 31.625C4.95841 31.0417 4.66675 30.329 4.66675 29.4871V10.5129C4.66675 9.67097 4.95841 8.95833 5.54175 8.375C6.12508 7.79167 6.83772 7.5 7.67966 7.5H16.8301L20.1634 10.8333H33.3205C34.1624 10.8333 34.8751 11.125 35.4584 11.7083C36.0417 12.2917 36.3334 13.0043 36.3334 13.8463V18.4871C35.9509 18.2221 35.554 17.9924 35.1426 17.7979C34.7312 17.6035 34.2948 17.4304 33.8334 17.2787V13.8463C33.8334 13.6965 33.7854 13.5736 33.6892 13.4775C33.5931 13.3814 33.4702 13.3333 33.3205 13.3333H19.1409L15.8076 10H7.67966C7.52994 10 7.40703 10.0481 7.31092 10.1442C7.2148 10.2403 7.16675 10.3632 7.16675 10.5129V29.4871C7.16675 29.6368 7.2148 29.7597 7.31092 29.8558C7.40703 29.9519 7.52994 30 7.67966 30H19.1988C19.2716 30.4444 19.3741 30.8724 19.5063 31.2838C19.6388 31.6949 19.7981 32.1003 19.9842 32.5H7.67966Z" fill="#5D5D5D"/>
</g>
</svg>
