<svg width="41" height="40" viewBox="0 0 41 40" fill="none" xmlns="http://www.w3.org/2000/svg">
<mask id="mask0_1520_3454" style="mask-type:alpha" maskUnits="userSpaceOnUse" x="0" y="0" width="41" height="40">
<rect x="0.5" width="40" height="40" fill="#D9D9D9"/>
</mask>
<g mask="url(#mask0_1520_3454)">
<path d="M12.6797 31.6671C11.9338 31.6671 11.2987 31.4049 10.7743 30.8804C10.2495 30.3557 9.98717 29.7204 9.98717 28.9746V16.5775L5.50008 19.9204C5.30342 20.0485 5.10036 20.1024 4.89092 20.0821C4.68175 20.0618 4.50231 19.9534 4.35258 19.7567C4.20314 19.5603 4.14008 19.3574 4.16342 19.1479C4.18703 18.9385 4.29717 18.7591 4.49383 18.6096L18.8751 7.85627C19.1165 7.67683 19.3734 7.54753 19.6459 7.46836C19.9184 7.38919 20.2031 7.34961 20.5001 7.34961C20.797 7.34961 21.0818 7.38919 21.3543 7.46836C21.6268 7.54753 21.8837 7.67683 22.1251 7.85627L27.7438 12.0388V9.90419C27.7438 9.46614 27.8961 9.09489 28.2005 8.79044C28.5049 8.486 28.8762 8.33378 29.3142 8.33378C29.7523 8.33378 30.1236 8.486 30.428 8.79044C30.7324 9.09489 30.8847 9.46614 30.8847 9.90419V14.3979L36.5384 18.6096C36.7287 18.7591 36.8372 18.9385 36.8638 19.1479C36.8905 19.3574 36.8291 19.5603 36.6797 19.7567C36.5299 19.9534 36.3504 20.0618 36.1409 20.0821C35.9318 20.1024 35.7288 20.0485 35.5322 19.9204L31.0451 16.5775V28.9746C31.0451 29.7204 30.7827 30.3557 30.258 30.8804C29.7336 31.4049 29.0984 31.6671 28.3526 31.6671H25.2438C24.498 31.6671 23.8629 31.4049 23.3384 30.8804C22.8137 30.3557 22.5513 29.7204 22.5513 28.9746V23.9746C22.5513 23.6757 22.4552 23.43 22.263 23.2375C22.0705 23.0453 21.8248 22.9492 21.5259 22.9492H19.4743C19.1754 22.9492 18.9297 23.0453 18.7372 23.2375C18.5449 23.43 18.4488 23.6757 18.4488 23.9746V28.9746C18.4488 29.7204 18.1865 30.3557 17.6618 30.8804C17.1373 31.4049 16.5022 31.6671 15.7563 31.6671H12.6797ZM12.6797 30.0004H15.7563C16.0555 30.0004 16.3013 29.9043 16.4938 29.7121C16.6861 29.5196 16.7822 29.2738 16.7822 28.9746V23.9746C16.7822 23.2291 17.0444 22.5939 17.5688 22.0692C18.0936 21.5447 18.7287 21.2825 19.4743 21.2825H21.5259C22.2715 21.2825 22.9066 21.5447 23.4313 22.0692C23.9558 22.5939 24.218 23.2291 24.218 23.9746V28.9746C24.218 29.2738 24.3141 29.5196 24.5063 29.7121C24.6988 29.9043 24.9447 30.0004 25.2438 30.0004H28.3526C28.6518 30.0004 28.8974 29.9043 29.0897 29.7121C29.2822 29.5196 29.3784 29.2738 29.3784 28.9746V15.3496L21.1093 9.20878C20.9381 9.08044 20.7351 9.01628 20.5001 9.01628C20.2651 9.01628 20.062 9.08044 19.8909 9.20878L11.6538 15.3496V28.9746C11.6538 29.2738 11.7501 29.5196 11.9426 29.7121C12.1348 29.9043 12.3805 30.0004 12.6797 30.0004ZM17.4872 16.6767H23.513C23.513 15.8947 23.2118 15.251 22.6093 14.7454C22.0065 14.2402 21.3034 13.9875 20.5001 13.9875C19.6968 13.9875 18.9937 14.2402 18.3909 14.7454C17.7884 15.251 17.4872 15.8947 17.4872 16.6767Z" fill="#3A5254"/>
</g>
</svg>
