<svg width="41" height="40" viewBox="0 0 41 40" fill="none" xmlns="http://www.w3.org/2000/svg">
<path d="M17.9833 3.7166L9.66668 6.83326C7.75001 7.54993 6.18335 9.81658 6.18335 11.8666V24.2499C6.18335 26.2166 7.48337 28.7999 9.0667 29.9832L16.2333 35.3333C18.5833 37.0999 22.45 37.0999 24.8 35.3333L31.9667 29.9832C33.55 28.7999 34.85 26.2166 34.85 24.2499V11.8666C34.85 9.81658 33.2833 7.54993 31.3667 6.83326L23.05 3.7166C21.6333 3.19993 19.3667 3.19993 17.9833 3.7166Z" stroke="#5D5D5D" stroke-width="1.5" stroke-linecap="round" stroke-linejoin="round"/>
<path d="M20.5001 18.1997C20.4335 18.1997 20.3501 18.1997 20.2835 18.1997C18.7168 18.1497 17.4668 16.8497 17.4668 15.2664C17.4668 13.6497 18.7835 12.333 20.4001 12.333C22.0168 12.333 23.3335 13.6497 23.3335 15.2664C23.3168 16.8664 22.0668 18.1497 20.5001 18.1997Z" stroke="#5D5D5D" stroke-width="1.5" stroke-linecap="round" stroke-linejoin="round"/>
<path d="M17.1834 22.8666C15.5834 23.9333 15.5834 25.6832 17.1834 26.7499C19.0001 27.9666 21.9834 27.9666 23.8001 26.7499C25.4001 25.6832 25.4001 23.9333 23.8001 22.8666C22.0001 21.6499 19.0167 21.6499 17.1834 22.8666Z" stroke="#5D5D5D" stroke-width="1.5" stroke-linecap="round" stroke-linejoin="round"/>
</svg>
