<svg width="41" height="40" viewBox="0 0 41 40" fill="none" xmlns="http://www.w3.org/2000/svg">
<path d="M32.9999 20.8337C32.9999 18.5337 34.8666 16.667 37.1666 16.667V15.0003C37.1666 8.33366 35.4999 6.66699 28.8333 6.66699H12.1666C5.49992 6.66699 3.83325 8.33366 3.83325 15.0003V15.8337C6.13325 15.8337 7.99992 17.7003 7.99992 20.0003C7.99992 22.3003 6.13325 24.167 3.83325 24.167V25.0003C3.83325 31.667 5.49992 33.3337 12.1666 33.3337H28.8333C35.4999 33.3337 37.1666 31.667 37.1666 25.0003C34.8666 25.0003 32.9999 23.1337 32.9999 20.8337Z" stroke="#5D5D5D" stroke-width="1.5" stroke-linecap="round" stroke-linejoin="round"/>
<path d="M15.5 24.583L25.5 14.583" stroke="#5D5D5D" stroke-width="1.5" stroke-linecap="round" stroke-linejoin="round"/>
<path d="M25.4909 24.5833H25.5059" stroke="#5D5D5D" stroke-width="2" stroke-linecap="round" stroke-linejoin="round"/>
<path d="M15.4909 15.4163H15.5059" stroke="#5D5D5D" stroke-width="2" stroke-linecap="round" stroke-linejoin="round"/>
</svg>
