<svg width="41" height="40" viewBox="0 0 41 40" fill="none" xmlns="http://www.w3.org/2000/svg">
<mask id="mask0_1520_3479" style="mask-type:alpha" maskUnits="userSpaceOnUse" x="0" y="0" width="41" height="40">
<rect x="0.5" width="40" height="40" fill="#D9D9D9"/>
</mask>
<g mask="url(#mask0_1520_3479)">
<path d="M9.85925 33.3337C9.11341 33.3337 8.47814 33.0714 7.95341 32.547C7.42897 32.0223 7.16675 31.387 7.16675 30.6412V9.35949C7.16675 8.61366 7.42897 7.97838 7.95341 7.45366C8.47814 6.92921 9.11341 6.66699 9.85925 6.66699H31.1409C31.8867 6.66699 32.522 6.92921 33.0467 7.45366C33.5712 7.97838 33.8334 8.61366 33.8334 9.35949V14.2632H32.1667V9.35949C32.1667 9.06033 32.0706 8.81449 31.8784 8.62199C31.6859 8.42977 31.4401 8.33366 31.1409 8.33366H9.85925C9.56008 8.33366 9.31425 8.42977 9.12175 8.62199C8.92953 8.81449 8.83341 9.06033 8.83341 9.35949V30.6412C8.83341 30.9403 8.92953 31.1862 9.12175 31.3787C9.31425 31.5709 9.56008 31.667 9.85925 31.667H31.1409C31.4401 31.667 31.6859 31.5709 31.8784 31.3787C32.0706 31.1862 32.1667 30.9403 32.1667 30.6412V25.7374H33.8334V30.6412C33.8334 31.387 33.5712 32.0223 33.0467 32.547C32.522 33.0714 31.8867 33.3337 31.1409 33.3337H9.85925ZM23.1926 26.667C22.4467 26.667 21.8115 26.4048 21.2867 25.8803C20.7623 25.3556 20.5001 24.7203 20.5001 23.9745V16.0262C20.5001 15.2803 20.7623 14.645 21.2867 14.1203C21.8115 13.5959 22.4467 13.3337 23.1926 13.3337H32.8076C33.5534 13.3337 34.1887 13.5959 34.7134 14.1203C35.2379 14.645 35.5001 15.2803 35.5001 16.0262V23.9745C35.5001 24.7203 35.2379 25.3556 34.7134 25.8803C34.1887 26.4048 33.5534 26.667 32.8076 26.667H23.1926ZM32.8076 25.0003C33.1068 25.0003 33.3526 24.9042 33.5451 24.712C33.7373 24.5195 33.8334 24.2737 33.8334 23.9745V16.0262C33.8334 15.727 33.7373 15.4812 33.5451 15.2887C33.3526 15.0964 33.1068 15.0003 32.8076 15.0003H23.1926C22.8934 15.0003 22.6476 15.0964 22.4551 15.2887C22.2629 15.4812 22.1667 15.727 22.1667 16.0262V23.9745C22.1667 24.2737 22.2629 24.5195 22.4551 24.712C22.6476 24.9042 22.8934 25.0003 23.1926 25.0003H32.8076ZM27.1667 22.5003C27.8612 22.5003 28.4515 22.2573 28.9376 21.7712C29.4237 21.285 29.6667 20.6948 29.6667 20.0003C29.6667 19.3059 29.4237 18.7156 28.9376 18.2295C28.4515 17.7434 27.8612 17.5003 27.1667 17.5003C26.4723 17.5003 25.882 17.7434 25.3959 18.2295C24.9098 18.7156 24.6667 19.3059 24.6667 20.0003C24.6667 20.6948 24.9098 21.285 25.3959 21.7712C25.882 22.2573 26.4723 22.5003 27.1667 22.5003Z" fill="#5D5D5D"/>
</g>
</svg>
