<svg width="48" height="44" viewBox="0 0 48 44" fill="none" xmlns="http://www.w3.org/2000/svg">
<path d="M0.000938912 30.4696C0.532363 28.7149 1.06754 26.962 1.59333 25.2054C2.66182 21.6395 3.7256 18.0728 4.79221 14.5069C4.82601 14.3933 4.8692 14.2834 5.00346 14.1885C5.00346 14.367 5.00346 14.5454 5.00346 14.7239C5.00346 18.8957 4.99219 23.0674 5.00722 27.2391C5.01755 30.0093 6.1311 32.2272 8.45021 33.7818C9.74309 34.6489 11.1918 34.9908 12.7495 34.988C22.1198 34.9758 31.4902 34.9814 40.8605 34.9814H41.5243C41.2154 35.9715 40.9206 36.9193 40.6239 37.8671C40.3263 38.8187 40.0239 39.7684 39.7272 40.72C38.9517 43.2074 36.6213 44.4953 34.0966 43.8199C27.0116 41.9243 19.9275 40.0258 12.8434 38.1273C9.77501 37.3054 6.70946 36.4731 3.63828 35.6596C1.70976 35.1486 0.492929 33.9631 0.0713573 31.9923C0.0619682 31.9491 0.0244117 31.9125 0 31.873C0 31.4043 0 30.9355 0 30.4668L0.000938912 30.4696Z" fill="#D1D5DB"/>
<path d="M27.9739 32.0083C23.0709 32.0083 18.1679 32.0026 13.2649 32.0111C11.28 32.0139 9.73456 31.2258 8.68392 29.5265C8.20507 28.7524 7.98349 27.892 7.98349 26.9873C7.97786 19.6603 7.96565 12.3332 7.98818 5.00613C7.9957 2.15796 10.2247 0.00305295 13.0799 0.00211358C23.0267 -0.000704526 32.9736 -0.000704526 42.9204 0.00211358C45.7944 0.00211358 47.9755 2.19272 47.9764 5.0794C47.9802 12.2975 47.9342 19.5156 47.9999 26.7318C48.0243 29.4335 45.9925 32.0458 42.7298 32.0186C37.8118 31.9773 32.8919 32.0083 27.9739 32.0083ZM11.9936 23.8461C12.1926 23.6573 12.3166 23.5455 12.4339 23.4271C14.0573 21.8039 15.6798 20.1797 17.3031 18.5575C18.9603 16.9013 21.0146 16.8957 22.6737 18.5499C23.4032 19.277 24.1159 20.02 24.8623 20.7809C25.0445 20.5668 25.1872 20.4033 25.3261 20.2361C27.6152 17.4894 29.8939 14.7342 32.1943 11.9978C33.7876 10.1031 36.1903 10.106 37.8127 11.9894C39.7394 14.2251 41.6548 16.4702 43.5758 18.7096C43.6762 18.8271 43.7851 18.9379 43.9617 19.1295V18.5809C43.9617 14.1603 43.9617 9.7396 43.9617 5.31894C43.9617 4.3063 43.6697 4.01791 42.6472 4.01791C32.8731 4.01791 23.099 4.01791 13.325 4.01791C12.2997 4.01791 11.9917 4.32884 11.9917 5.36403C11.9917 11.2999 11.9917 17.2358 11.9917 23.1716V23.8461H11.9936Z" fill="#D1D5DB"/>
<path d="M17.9813 13.9988C15.7655 13.9895 13.9571 12.1671 13.9787 9.96426C14.0003 7.75581 15.8143 5.99073 18.0498 6.00201C20.2262 6.01328 22.0289 7.84974 22.0055 10.0328C21.982 12.2244 20.1727 14.0082 17.9813 13.9988Z" fill="#D1D5DB"/>
</svg>
