<svg width="41" height="40" viewBox="0 0 41 40" fill="none" xmlns="http://www.w3.org/2000/svg">
<mask id="mask0_1520_3459" style="mask-type:alpha" maskUnits="userSpaceOnUse" x="0" y="0" width="41" height="40">
<rect x="0.5" width="40" height="40" fill="#D9D9D9"/>
</mask>
<g mask="url(#mask0_1520_3459)">
<path d="M4.82715 28.2825C4.82715 27.5089 5.02743 26.8438 5.42798 26.2871C5.82854 25.7307 6.36687 25.286 7.04298 24.9529C8.48882 24.2646 9.92423 23.7159 11.3492 23.3067C12.7745 22.8975 14.4894 22.6929 16.4938 22.6929C18.498 22.6929 20.2127 22.8975 21.638 23.3067C23.0633 23.7159 24.4987 24.2646 25.9442 24.9529C26.6203 25.286 27.1587 25.7307 27.5592 26.2871C27.9601 26.8438 28.1605 27.5089 28.1605 28.2825V29.2954C28.1605 29.7204 27.9942 30.1152 27.6617 30.4796C27.3295 30.8441 26.9188 31.0263 26.4296 31.0263H6.55757C6.0684 31.0263 5.6577 30.86 5.32548 30.5275C4.99326 30.1953 4.82715 29.7846 4.82715 29.2954V28.2825ZM34.4426 31.0263H31.1217C31.2351 30.7613 31.3253 30.4818 31.3926 30.1879C31.4601 29.8941 31.4938 29.5966 31.4938 29.2954V28.2054C31.4938 27.2396 31.2983 26.3279 30.9072 25.4704C30.5163 24.6129 29.9619 23.8772 29.2438 23.2634C30.0621 23.43 30.8506 23.6613 31.6092 23.9571C32.3676 24.2532 33.1176 24.586 33.8592 24.9554C34.5815 25.3188 35.1477 25.7836 35.558 26.35C35.968 26.9167 36.173 27.5352 36.173 28.2054V29.2954C36.173 29.7846 36.0069 30.1953 35.6747 30.5275C35.3424 30.86 34.9317 31.0263 34.4426 31.0263ZM16.4938 18.9746C15.1188 18.9746 13.9417 18.485 12.9626 17.5059C11.9834 16.5267 11.4938 15.3496 11.4938 13.9746C11.4938 12.5996 11.9834 11.4225 12.9626 10.4434C13.9417 9.46419 15.1188 8.97461 16.4938 8.97461C17.8688 8.97461 19.0459 9.46419 20.0251 10.4434C21.0042 11.4225 21.4938 12.5996 21.4938 13.9746C21.4938 15.3496 21.0042 16.5267 20.0251 17.5059C19.0459 18.485 17.8688 18.9746 16.4938 18.9746ZM28.6092 13.9746C28.6092 15.3496 28.1196 16.5267 27.1405 17.5059C26.1613 18.485 24.9842 18.9746 23.6092 18.9746C23.5387 18.9746 23.4488 18.9667 23.3396 18.9509C23.2308 18.9347 23.141 18.9171 23.0705 18.8979C23.6352 18.2063 24.0691 17.4391 24.3721 16.5963C24.6755 15.7535 24.8271 14.8784 24.8271 13.9709C24.8271 13.0634 24.6684 12.1961 24.3509 11.3692C24.0337 10.5422 23.6069 9.76975 23.0705 9.05169C23.1602 9.01975 23.2499 8.99891 23.3396 8.98919C23.4294 8.97947 23.5192 8.97461 23.6092 8.97461C24.9842 8.97461 26.1613 9.46419 27.1405 10.4434C28.1196 11.4225 28.6092 12.5996 28.6092 13.9746ZM6.49382 29.3596H26.4938V28.2825C26.4938 27.8914 26.396 27.5495 26.2005 27.2567C26.0049 26.9642 25.654 26.6843 25.1476 26.4171C23.904 25.7527 22.593 25.2436 21.2146 24.89C19.8366 24.5364 18.263 24.3596 16.4938 24.3596C14.7244 24.3596 13.1506 24.5364 11.7726 24.89C10.3942 25.2436 9.08326 25.7527 7.83965 26.4171C7.33326 26.6843 6.98229 26.9642 6.78673 27.2567C6.59145 27.5495 6.49382 27.8914 6.49382 28.2825V29.3596ZM16.4938 17.3079C17.4105 17.3079 18.1952 16.9816 18.848 16.3288C19.5008 15.676 19.8271 14.8913 19.8271 13.9746C19.8271 13.0579 19.5008 12.2732 18.848 11.6204C18.1952 10.9677 17.4105 10.6413 16.4938 10.6413C15.5771 10.6413 14.7924 10.9677 14.1396 11.6204C13.4869 12.2732 13.1605 13.0579 13.1605 13.9746C13.1605 14.8913 13.4869 15.676 14.1396 16.3288C14.7924 16.9816 15.5771 17.3079 16.4938 17.3079Z" fill="#5D5D5D"/>
</g>
</svg>
